<mxfile host="app.diagrams.net" modified="2022-04-12T05:28:34.677Z" agent="5.0 (Windows NT 10.0; Win64; x64) AppleWebKit/537.36 (KHTML, like Gecko) Chrome/100.0.4896.75 Safari/537.36" etag="A9H-HnRbYQEM790m4OaR" version="17.4.3" type="github">
  <diagram id="elI6AwSIGjLYtBaEWZJg" name="Page-1">
    <mxGraphModel dx="1038" dy="579" grid="1" gridSize="10" guides="1" tooltips="1" connect="1" arrows="1" fold="1" page="1" pageScale="1" pageWidth="850" pageHeight="1100" math="0" shadow="0">
      <root>
        <mxCell id="0" />
        <mxCell id="1" parent="0" />
        <mxCell id="kVRj3fY2eRAeYTCR9Hya-1" value="" style="shape=table;startSize=0;container=1;collapsible=0;childLayout=tableLayout;rounded=0;sketch=0;" vertex="1" parent="1">
          <mxGeometry x="320" y="240" width="60" height="80" as="geometry" />
        </mxCell>
        <mxCell id="kVRj3fY2eRAeYTCR9Hya-2" value="" style="shape=tableRow;horizontal=0;startSize=0;swimlaneHead=0;swimlaneBody=0;top=0;left=0;bottom=0;right=0;collapsible=0;dropTarget=0;fillColor=none;points=[[0,0.5],[1,0.5]];portConstraint=eastwest;rounded=0;sketch=0;" vertex="1" parent="kVRj3fY2eRAeYTCR9Hya-1">
          <mxGeometry width="60" height="40" as="geometry" />
        </mxCell>
        <mxCell id="kVRj3fY2eRAeYTCR9Hya-3" value="a" style="shape=partialRectangle;html=1;whiteSpace=wrap;connectable=0;overflow=hidden;fillColor=none;top=0;left=0;bottom=0;right=0;pointerEvents=1;rounded=0;sketch=0;" vertex="1" parent="kVRj3fY2eRAeYTCR9Hya-2">
          <mxGeometry width="60" height="40" as="geometry">
            <mxRectangle width="60" height="40" as="alternateBounds" />
          </mxGeometry>
        </mxCell>
        <mxCell id="kVRj3fY2eRAeYTCR9Hya-4" value="" style="shape=tableRow;horizontal=0;startSize=0;swimlaneHead=0;swimlaneBody=0;top=0;left=0;bottom=0;right=0;collapsible=0;dropTarget=0;fillColor=none;points=[[0,0.5],[1,0.5]];portConstraint=eastwest;rounded=0;sketch=0;" vertex="1" parent="kVRj3fY2eRAeYTCR9Hya-1">
          <mxGeometry y="40" width="60" height="40" as="geometry" />
        </mxCell>
        <mxCell id="kVRj3fY2eRAeYTCR9Hya-5" value="next" style="shape=partialRectangle;html=1;whiteSpace=wrap;connectable=0;overflow=hidden;fillColor=none;top=0;left=0;bottom=0;right=0;pointerEvents=1;rounded=0;sketch=0;" vertex="1" parent="kVRj3fY2eRAeYTCR9Hya-4">
          <mxGeometry width="60" height="40" as="geometry">
            <mxRectangle width="60" height="40" as="alternateBounds" />
          </mxGeometry>
        </mxCell>
        <mxCell id="kVRj3fY2eRAeYTCR9Hya-17" value="" style="shape=singleArrow;whiteSpace=wrap;html=1;arrowWidth=0.4;arrowSize=0.4;" vertex="1" parent="kVRj3fY2eRAeYTCR9Hya-4">
          <mxGeometry x="60" width="NaN" height="40" as="geometry">
            <mxRectangle width="NaN" height="40" as="alternateBounds" />
          </mxGeometry>
        </mxCell>
        <mxCell id="kVRj3fY2eRAeYTCR9Hya-19" value="" style="shape=waypoint;sketch=0;size=6;pointerEvents=1;points=[];fillColor=none;resizable=0;rotatable=0;perimeter=centerPerimeter;snapToPoint=1;" vertex="1" parent="kVRj3fY2eRAeYTCR9Hya-4">
          <mxGeometry width="NaN" height="40" as="geometry">
            <mxRectangle width="NaN" height="40" as="alternateBounds" />
          </mxGeometry>
        </mxCell>
        <mxCell id="kVRj3fY2eRAeYTCR9Hya-22" value="" style="shape=waypoint;sketch=0;size=6;pointerEvents=1;points=[];fillColor=none;resizable=0;rotatable=0;perimeter=centerPerimeter;snapToPoint=1;" vertex="1" parent="kVRj3fY2eRAeYTCR9Hya-4">
          <mxGeometry width="NaN" height="40" as="geometry">
            <mxRectangle width="NaN" height="40" as="alternateBounds" />
          </mxGeometry>
        </mxCell>
        <mxCell id="kVRj3fY2eRAeYTCR9Hya-24" value="" style="shape=waypoint;sketch=0;size=6;pointerEvents=1;points=[];fillColor=none;resizable=0;rotatable=0;perimeter=centerPerimeter;snapToPoint=1;" vertex="1" parent="kVRj3fY2eRAeYTCR9Hya-4">
          <mxGeometry width="NaN" height="40" as="geometry">
            <mxRectangle width="NaN" height="40" as="alternateBounds" />
          </mxGeometry>
        </mxCell>
        <mxCell id="kVRj3fY2eRAeYTCR9Hya-6" value="" style="shape=table;startSize=0;container=1;collapsible=0;childLayout=tableLayout;rounded=0;sketch=0;" vertex="1" parent="1">
          <mxGeometry x="440" y="240" width="60" height="80" as="geometry" />
        </mxCell>
        <mxCell id="kVRj3fY2eRAeYTCR9Hya-7" value="" style="shape=tableRow;horizontal=0;startSize=0;swimlaneHead=0;swimlaneBody=0;top=0;left=0;bottom=0;right=0;collapsible=0;dropTarget=0;fillColor=none;points=[[0,0.5],[1,0.5]];portConstraint=eastwest;rounded=0;sketch=0;" vertex="1" parent="kVRj3fY2eRAeYTCR9Hya-6">
          <mxGeometry width="60" height="40" as="geometry" />
        </mxCell>
        <mxCell id="kVRj3fY2eRAeYTCR9Hya-8" value="z" style="shape=partialRectangle;html=1;whiteSpace=wrap;connectable=0;overflow=hidden;fillColor=none;top=0;left=0;bottom=0;right=0;pointerEvents=1;rounded=0;sketch=0;" vertex="1" parent="kVRj3fY2eRAeYTCR9Hya-7">
          <mxGeometry width="60" height="40" as="geometry">
            <mxRectangle width="60" height="40" as="alternateBounds" />
          </mxGeometry>
        </mxCell>
        <mxCell id="kVRj3fY2eRAeYTCR9Hya-9" value="" style="shape=tableRow;horizontal=0;startSize=0;swimlaneHead=0;swimlaneBody=0;top=0;left=0;bottom=0;right=0;collapsible=0;dropTarget=0;fillColor=none;points=[[0,0.5],[1,0.5]];portConstraint=eastwest;rounded=0;sketch=0;" vertex="1" parent="kVRj3fY2eRAeYTCR9Hya-6">
          <mxGeometry y="40" width="60" height="40" as="geometry" />
        </mxCell>
        <mxCell id="kVRj3fY2eRAeYTCR9Hya-10" value="null" style="shape=partialRectangle;html=1;whiteSpace=wrap;connectable=0;overflow=hidden;fillColor=none;top=0;left=0;bottom=0;right=0;pointerEvents=1;rounded=0;sketch=0;" vertex="1" parent="kVRj3fY2eRAeYTCR9Hya-9">
          <mxGeometry width="60" height="40" as="geometry">
            <mxRectangle width="60" height="40" as="alternateBounds" />
          </mxGeometry>
        </mxCell>
        <mxCell id="kVRj3fY2eRAeYTCR9Hya-11" value="node1" style="text;html=1;align=center;verticalAlign=middle;resizable=0;points=[];autosize=1;strokeColor=none;fillColor=none;" vertex="1" parent="1">
          <mxGeometry x="325" y="320" width="50" height="20" as="geometry" />
        </mxCell>
        <mxCell id="kVRj3fY2eRAeYTCR9Hya-12" value="node2" style="text;html=1;align=center;verticalAlign=middle;resizable=0;points=[];autosize=1;strokeColor=none;fillColor=none;" vertex="1" parent="1">
          <mxGeometry x="445" y="320" width="50" height="20" as="geometry" />
        </mxCell>
        <mxCell id="kVRj3fY2eRAeYTCR9Hya-18" value="" style="edgeStyle=orthogonalEdgeStyle;rounded=0;orthogonalLoop=1;jettySize=auto;html=1;" edge="1" parent="1" source="kVRj3fY2eRAeYTCR9Hya-16" target="kVRj3fY2eRAeYTCR9Hya-17">
          <mxGeometry relative="1" as="geometry" />
        </mxCell>
        <mxCell id="kVRj3fY2eRAeYTCR9Hya-20" value="" style="edgeStyle=orthogonalEdgeStyle;rounded=0;orthogonalLoop=1;jettySize=auto;html=1;" edge="1" parent="1" source="kVRj3fY2eRAeYTCR9Hya-16" target="kVRj3fY2eRAeYTCR9Hya-19">
          <mxGeometry relative="1" as="geometry" />
        </mxCell>
        <mxCell id="kVRj3fY2eRAeYTCR9Hya-23" value="" style="edgeStyle=orthogonalEdgeStyle;rounded=0;orthogonalLoop=1;jettySize=auto;html=1;" edge="1" parent="1" source="kVRj3fY2eRAeYTCR9Hya-16" target="kVRj3fY2eRAeYTCR9Hya-22">
          <mxGeometry relative="1" as="geometry" />
        </mxCell>
        <mxCell id="kVRj3fY2eRAeYTCR9Hya-16" value="head" style="text;html=1;align=center;verticalAlign=middle;resizable=0;points=[];autosize=1;strokeColor=none;fillColor=none;" vertex="1" parent="1">
          <mxGeometry x="330" y="170" width="40" height="20" as="geometry" />
        </mxCell>
        <mxCell id="kVRj3fY2eRAeYTCR9Hya-26" value="" style="endArrow=classic;html=1;rounded=0;entryX=0.5;entryY=-0.025;entryDx=0;entryDy=0;entryPerimeter=0;" edge="1" parent="1" source="kVRj3fY2eRAeYTCR9Hya-16" target="kVRj3fY2eRAeYTCR9Hya-2">
          <mxGeometry width="50" height="50" relative="1" as="geometry">
            <mxPoint x="400" y="350" as="sourcePoint" />
            <mxPoint x="450" y="300" as="targetPoint" />
          </mxGeometry>
        </mxCell>
        <mxCell id="kVRj3fY2eRAeYTCR9Hya-27" value="" style="curved=1;endArrow=classic;html=1;rounded=0;entryX=0;entryY=0.5;entryDx=0;entryDy=0;" edge="1" parent="1" target="kVRj3fY2eRAeYTCR9Hya-7">
          <mxGeometry width="50" height="50" relative="1" as="geometry">
            <mxPoint x="380" y="305" as="sourcePoint" />
            <mxPoint x="430" y="255" as="targetPoint" />
            <Array as="points">
              <mxPoint x="430" y="305" />
              <mxPoint x="380" y="255" />
            </Array>
          </mxGeometry>
        </mxCell>
        <mxCell id="kVRj3fY2eRAeYTCR9Hya-30" value="tail" style="text;html=1;align=center;verticalAlign=middle;resizable=0;points=[];autosize=1;strokeColor=none;fillColor=none;" vertex="1" parent="1">
          <mxGeometry x="455" y="170" width="30" height="20" as="geometry" />
        </mxCell>
        <mxCell id="kVRj3fY2eRAeYTCR9Hya-31" value="" style="endArrow=classic;html=1;rounded=0;entryX=0.5;entryY=-0.025;entryDx=0;entryDy=0;entryPerimeter=0;" edge="1" parent="1">
          <mxGeometry width="50" height="50" relative="1" as="geometry">
            <mxPoint x="469.5" y="191" as="sourcePoint" />
            <mxPoint x="469.5" y="240" as="targetPoint" />
          </mxGeometry>
        </mxCell>
      </root>
    </mxGraphModel>
  </diagram>
</mxfile>
